<svg xmlns="http://www.w3.org/2000/svg" width="1400" height="880" viewBox="0 0 1400 880">
<rect width="100%" height="100%" fill="#f7f7f5"/>
<rect x="0" y="0" width="1400" height="118" fill="#2f3a42"/>
<text x="56" y="56" font-family="Arial, sans-serif" font-size="32" font-weight="700" fill="#ffffff">NeuroTrax SensorDB CAVIA</text>
<text x="56" y="90" font-family="Arial, sans-serif" font-size="17" fill="#d7dde1">Digital phenotyping fieldwork progress snapshot</text>
<rect x="56" y="148" width="1288" height="146" rx="8" fill="#ffffff" stroke="#d8d8d2"/>
<text x="86" y="186" font-family="Arial, sans-serif" font-size="20" font-weight="700" fill="#2b2f33">Research outcomes</text>
<circle cx="102" cy="222" r="11" fill="#5b6770"/>
<text x="98" y="227" font-family="Arial, sans-serif" font-size="13" font-weight="700" fill="#ffffff">1</text>
<text x="128" y="228" font-family="Arial, sans-serif" font-size="16" fill="#343a40">T1 baseline digital phenotype: describe smartphone-derived behavior/context around the first cognitive assessment.</text>
<circle cx="102" cy="264" r="11" fill="#6f7d6b"/>
<text x="98" y="269" font-family="Arial, sans-serif" font-size="13" font-weight="700" fill="#ffffff">2</text>
<text x="128" y="270" font-family="Arial, sans-serif" font-size="16" fill="#343a40">T1-to-T2 digital change phenotype: quantify digital changes between visits and relate them to later cognitive outcome.</text>
<rect x="56" y="316" width="1288" height="72" rx="8" fill="#edf0ed" stroke="#cfd6cf"/>
<text x="86" y="347" font-family="Arial, sans-serif" font-size="17" font-weight="700" fill="#38413b">We are now guiding a large, rich digital biomarker model from raw SensorDB (SQL) tables</text>
<text x="86" y="371" font-family="Arial, sans-serif" font-size="17" font-weight="700" fill="#38413b">into curated, clinically interpretable feature families.</text>
<rect x="56" y="424" width="244" height="116" rx="8" fill="#ffffff" stroke="#d8d8d2"/>
<text x="76" y="458" font-family="Arial, sans-serif" font-size="15" font-weight="700" fill="#4a4f54">Target tables</text>
<text x="76" y="510" font-family="Arial, sans-serif" font-size="44" font-weight="800" fill="#2f3a42">21</text>
<rect x="317" y="424" width="244" height="116" rx="8" fill="#ffffff" stroke="#d8d8d2"/>
<text x="337" y="458" font-family="Arial, sans-serif" font-size="15" font-weight="700" fill="#4a4f54">Reviewed tables</text>
<text x="337" y="510" font-family="Arial, sans-serif" font-size="44" font-weight="800" fill="#2f3a42">10</text>
<rect x="578" y="424" width="244" height="116" rx="8" fill="#ffffff" stroke="#d8d8d2"/>
<text x="598" y="458" font-family="Arial, sans-serif" font-size="15" font-weight="700" fill="#4a4f54">Candidate features</text>
<text x="598" y="510" font-family="Arial, sans-serif" font-size="44" font-weight="800" fill="#2f3a42">69</text>
<rect x="839" y="424" width="244" height="116" rx="8" fill="#ffffff" stroke="#d8d8d2"/>
<text x="859" y="458" font-family="Arial, sans-serif" font-size="15" font-weight="700" fill="#4a4f54">Selected features</text>
<text x="859" y="510" font-family="Arial, sans-serif" font-size="44" font-weight="800" fill="#2f3a42">29</text>
<rect x="1100" y="424" width="244" height="116" rx="8" fill="#ffffff" stroke="#d8d8d2"/>
<text x="1120" y="458" font-family="Arial, sans-serif" font-size="15" font-weight="700" fill="#4a4f54">Calculated values</text>
<text x="1120" y="510" font-family="Arial, sans-serif" font-size="44" font-weight="800" fill="#2f3a42">27</text>
<text x="56" y="594" font-family="Arial, sans-serif" font-size="20" font-weight="700" fill="#2b2f33">Pipeline progress</text>
<rect x="58" y="626" width="224" height="64" rx="8" fill="#ffffff" stroke="#cfd3d4"/>
<text x="74" y="653" font-family="Arial, sans-serif" font-size="14" font-weight="700" fill="#2b2f33">NeuroTrax cognitive data</text>
<text x="74" y="675" font-family="Arial, sans-serif" font-size="13" fill="#6b7280">organized</text>
<text x="287" y="667" font-family="Arial, sans-serif" font-size="24" fill="#8a9094">→</text>
<rect x="306" y="626" width="224" height="64" rx="8" fill="#ffffff" stroke="#cfd3d4"/>
<text x="322" y="649" font-family="Arial, sans-serif" font-size="13" font-weight="700" fill="#2b2f33">Phase 1 digital</text>
<text x="322" y="665" font-family="Arial, sans-serif" font-size="13" font-weight="700" fill="#2b2f33">phenotyping POC</text>
<text x="322" y="683" font-family="Arial, sans-serif" font-size="12" fill="#6b7280">successful</text>
<text x="535" y="667" font-family="Arial, sans-serif" font-size="24" fill="#8a9094">→</text>
<rect x="554" y="626" width="224" height="64" rx="8" fill="#ffffff" stroke="#cfd3d4"/>
<text x="570" y="653" font-family="Arial, sans-serif" font-size="14" font-weight="700" fill="#2b2f33">Phase 2 table review</text>
<text x="570" y="675" font-family="Arial, sans-serif" font-size="13" fill="#6b7280">active</text>
<text x="783" y="667" font-family="Arial, sans-serif" font-size="24" fill="#8a9094">→</text>
<rect x="802" y="626" width="224" height="64" rx="8" fill="#ffffff" stroke="#cfd3d4"/>
<text x="818" y="653" font-family="Arial, sans-serif" font-size="14" font-weight="700" fill="#2b2f33">Selected feature extraction</text>
<text x="818" y="675" font-family="Arial, sans-serif" font-size="13" fill="#6b7280">active</text>
<text x="1031" y="667" font-family="Arial, sans-serif" font-size="24" fill="#8a9094">→</text>
<rect x="1050" y="626" width="224" height="64" rx="8" fill="#f2f0e8" stroke="#cfd3d4"/>
<text x="1066" y="653" font-family="Arial, sans-serif" font-size="14" font-weight="700" fill="#2b2f33">Full cohort modeling</text>
<text x="1066" y="675" font-family="Arial, sans-serif" font-size="13" fill="#6b7280">next</text>
<text x="56" y="745" font-family="Arial, sans-serif" font-size="20" font-weight="700" fill="#2b2f33">Tables already producing calculated values (examples)</text>
<text x="56" y="792" font-family="Arial, sans-serif" font-size="13" fill="#2b2f33">keyboard</text>
<rect x="206" y="778" width="125" height="18" rx="4" fill="#e5e5df"/>
<rect x="206" y="778" width="125.0" height="18" rx="4" fill="#5b6770"/>
<text x="340" y="792" font-family="Arial, sans-serif" font-size="13" font-weight="700" fill="#2b2f33">6</text>
<text x="378" y="792" font-family="Arial, sans-serif" font-size="13" fill="#2b2f33">calls</text>
<rect x="528" y="778" width="125" height="18" rx="4" fill="#e5e5df"/>
<rect x="528" y="778" width="104.2" height="18" rx="4" fill="#5b6770"/>
<text x="662" y="792" font-family="Arial, sans-serif" font-size="13" font-weight="700" fill="#2b2f33">5</text>
<text x="700" y="792" font-family="Arial, sans-serif" font-size="13" fill="#2b2f33">light</text>
<rect x="850" y="778" width="125" height="18" rx="4" fill="#e5e5df"/>
<rect x="850" y="778" width="83.3" height="18" rx="4" fill="#5b6770"/>
<text x="984" y="792" font-family="Arial, sans-serif" font-size="13" font-weight="700" fill="#2b2f33">4</text>
<text x="1022" y="792" font-family="Arial, sans-serif" font-size="13" fill="#2b2f33">applications_foreground</text>
<rect x="1172" y="778" width="125" height="18" rx="4" fill="#e5e5df"/>
<rect x="1172" y="778" width="62.5" height="18" rx="4" fill="#5b6770"/>
<text x="1306" y="792" font-family="Arial, sans-serif" font-size="13" font-weight="700" fill="#2b2f33">3</text>
<text x="56" y="830" font-family="Arial, sans-serif" font-size="13" fill="#2b2f33">gsm</text>
<rect x="206" y="816" width="125" height="18" rx="4" fill="#e5e5df"/>
<rect x="206" y="816" width="62.5" height="18" rx="4" fill="#5b6770"/>
<text x="340" y="830" font-family="Arial, sans-serif" font-size="13" font-weight="700" fill="#2b2f33">3</text>
<text x="378" y="830" font-family="Arial, sans-serif" font-size="13" fill="#2b2f33">locations</text>
<rect x="528" y="816" width="125" height="18" rx="4" fill="#e5e5df"/>
<rect x="528" y="816" width="41.7" height="18" rx="4" fill="#5b6770"/>
<text x="662" y="830" font-family="Arial, sans-serif" font-size="13" font-weight="700" fill="#2b2f33">2</text>
<text x="700" y="830" font-family="Arial, sans-serif" font-size="13" fill="#2b2f33">messages</text>
<rect x="850" y="816" width="125" height="18" rx="4" fill="#e5e5df"/>
<rect x="850" y="816" width="41.7" height="18" rx="4" fill="#5b6770"/>
<text x="984" y="830" font-family="Arial, sans-serif" font-size="13" font-weight="700" fill="#2b2f33">2</text>
<text x="1022" y="830" font-family="Arial, sans-serif" font-size="13" fill="#2b2f33">bluetooth</text>
<rect x="1172" y="816" width="125" height="18" rx="4" fill="#e5e5df"/>
<rect x="1172" y="816" width="41.7" height="18" rx="4" fill="#5b6770"/>
<text x="1306" y="830" font-family="Arial, sans-serif" font-size="13" font-weight="700" fill="#2b2f33">2</text>
</svg>